<svg width="20" height="18" fill="none" xmlns="http://www.w3.org/2000/svg"><path d="M17.944 4.556c.013.194.013.388.013.581 0 5.912-4.124 12.723-11.663 12.723-2.322 0-4.48-.734-6.294-2.007.33.041.647.055.99.055 1.916 0 3.68-.706 5.089-1.91-1.802-.042-3.312-1.33-3.833-3.101.254.041.508.069.774.069.368 0 .736-.056 1.079-.152C2.221 10.398.812 8.598.812 6.425V6.37c.546.332 1.18.54 1.853.567C1.56 6.134.838 4.764.838 3.213c0-.83.203-1.592.558-2.256 2.018 2.713 5.05 4.485 8.452 4.679a5.489 5.489 0 01-.102-1.025c0-2.464 1.828-4.471 4.1-4.471 1.18 0 2.245.54 2.994 1.412a7.673 7.673 0 002.602-1.08 4.411 4.411 0 01-1.802 2.464A7.685 7.685 0 0020 2.244a9.29 9.29 0 01-2.056 2.312z" fill="#1C1514"/></svg>