<?xml version="1.0" standalone="no"?>
<!DOCTYPE svg PUBLIC "-//W3C//DTD SVG 20010904//EN"
 "http://www.w3.org/TR/2001/REC-SVG-20010904/DTD/svg10.dtd">
<svg version="1.0" xmlns="http://www.w3.org/2000/svg"
 width="24.000000pt" height="24.000000pt" viewBox="0 0 24.000000 24.000000"
 preserveAspectRatio="xMidYMid meet">

<g transform="translate(0.000000,24.000000) scale(0.100000,-0.100000)"
fill="#000000" stroke="none">
<path d="M138 199 c-10 -5 -18 -19 -18 -29 0 -26 -10 -25 -54 5 l-37 25 3 -38
c1 -20 10 -51 20 -69 16 -29 16 -33 1 -41 -13 -8 -11 -10 12 -16 69 -17 121
34 139 137 3 18 0 27 -9 27 -7 0 -19 2 -27 5 -7 2 -21 0 -30 -6z"/>
</g>
</svg>
