<svg width="24" height="24" viewBox="0 0 24 24" fill="none" xmlns="http://www.w3.org/2000/svg">
<path d="M19.9442 7.55613C19.9569 7.74994 19.9569 7.94379 19.9569 8.13759C19.9569 14.049 15.8326 20.8603 8.29444 20.8603C5.97209 20.8603 3.81473 20.1265 2 18.8529C2.32996 18.8944 2.64719 18.9083 2.98985 18.9083C4.90607 18.9083 6.67006 18.2023 8.0787 16.9978C6.27666 16.9563 4.7665 15.6688 4.24618 13.8967C4.50001 13.9382 4.7538 13.9659 5.02032 13.9659C5.38833 13.9659 5.75638 13.9105 6.099 13.8137C4.22083 13.3983 2.81215 11.5986 2.81215 9.42509V9.36973C3.35782 9.70199 3.99239 9.90965 4.66493 9.9373C3.56087 9.13433 2.83754 7.76379 2.83754 6.21324C2.83754 5.38261 3.04055 4.62119 3.3959 3.95667C5.41369 6.6701 8.4467 8.44211 11.8477 8.63596C11.7843 8.3037 11.7462 7.95764 11.7462 7.61153C11.7462 5.14726 13.5736 3.13989 15.8452 3.13989C17.0254 3.13989 18.0914 3.67981 18.8401 4.55198C19.7665 4.35818 20.6548 3.98437 21.4416 3.47215C21.137 4.51048 20.4898 5.38265 19.6396 5.93638C20.4645 5.83952 21.264 5.59027 22 5.2442C21.4417 6.13019 20.7437 6.91927 19.9442 7.55613Z" fill="#E9E7E4"/>
</svg>
