<?xml version="1.0" standalone="no"?>
<!DOCTYPE svg PUBLIC "-//W3C//DTD SVG 20010904//EN"
 "http://www.w3.org/TR/2001/REC-SVG-20010904/DTD/svg10.dtd">
<svg version="1.0" xmlns="http://www.w3.org/2000/svg"
 width="24.000000pt" height="24.000000pt" viewBox="0 0 24.000000 24.000000"
 preserveAspectRatio="xMidYMid meet">

<g transform="translate(0.000000,24.000000) scale(0.100000,-0.100000)"
fill="#000000" stroke="none">
<path d="M26 184 c-18 -17 -22 -99 -7 -123 7 -10 35 -16 93 -19 103 -5 118 5
118 78 0 70 -14 80 -110 80 -58 0 -83 -4 -94 -16z m124 -64 c0 -4 -11 -12 -25
-18 -24 -11 -25 -10 -25 18 0 28 1 29 25 18 14 -6 25 -14 25 -18z"/>
</g>
</svg>
